<svg width="61" height="61" viewBox="0 0 61 61" fill="none" xmlns="http://www.w3.org/2000/svg">
<path d="M56.6342 55.7333V60.019H5.20564V55.7333H56.6342ZM56.6342 4.30476H5.20564V60.019L4.76828 59.996C2.75066 59.7915 1.14749 58.1883 0.942941 56.1707L0.919922 55.7333V4.30476C0.919923 2.08551 2.60683 0.261196 4.76828 0.0420619L5.20564 0.019043H56.6342L57.0716 0.0420619C59.233 0.261197 60.9199 2.08551 60.9199 4.30476V55.7333L60.8969 56.1707C60.6923 58.1883 59.0892 59.7915 57.0716 59.996L56.6342 60.019V4.30476Z" fill="black"/>
<path d="M32.8449 42.166H29.8963C29.5534 42.166 29.302 41.9717 29.142 41.5832L21.8734 19.6746C21.7592 19.3546 21.5763 19.1946 21.3249 19.1946C20.9592 19.1946 20.7763 19.3889 20.7763 19.7774V41.5832C20.7763 41.9717 20.5934 42.166 20.2277 42.166H18.822C18.4563 42.166 18.2734 41.9717 18.2734 41.5832V17.9603C18.2734 17.5717 18.4563 17.3774 18.822 17.3774H22.9363C23.2563 17.3774 23.4849 17.5603 23.622 17.926L30.822 38.8403C30.9363 39.1603 31.1192 39.3203 31.3706 39.3203C31.622 39.3203 31.8049 39.1603 31.9192 38.8403L39.1192 17.926C39.2563 17.5603 39.4849 17.3774 39.8049 17.3774H43.9192C44.2849 17.3774 44.4677 17.5717 44.4677 17.9603V41.5832C44.4677 41.9717 44.2849 42.166 43.9192 42.166H42.5134C42.1477 42.166 41.9649 41.9717 41.9649 41.5832V19.7774C41.9649 19.3889 41.782 19.1946 41.4163 19.1946C41.1649 19.1946 40.982 19.3546 40.8677 19.6746L33.5992 41.5832C33.4392 41.9717 33.1877 42.166 32.8449 42.166Z" fill="black"/>
<path d="M41.7612 41.5836V19.7784C41.7612 19.6141 41.7216 19.53 41.6816 19.4875C41.644 19.4475 41.5727 19.408 41.4263 19.408C41.3509 19.408 41.2929 19.4308 41.2422 19.475C41.1877 19.5226 41.128 19.6051 41.079 19.7407L41.0811 19.7428L33.8133 41.6506L33.8071 41.6653C33.7173 41.8831 33.5957 42.0643 33.4325 42.1905C33.2662 42.319 33.0698 42.3809 32.8549 42.3809H29.9064C29.6916 42.3809 29.4951 42.319 29.3288 42.1905C29.1656 42.0643 29.044 41.883 28.9542 41.6653L28.948 41.6506L21.6802 19.7428C21.6312 19.6076 21.5735 19.5225 21.5191 19.475C21.4684 19.4308 21.4104 19.408 21.335 19.408C21.1886 19.408 21.1173 19.4475 21.0797 19.4875C21.0397 19.53 21.0001 19.6142 21.0001 19.7784V41.5836C21.0001 41.8076 20.9483 42.0158 20.8055 42.1675C20.6605 42.3215 20.4575 42.3808 20.2384 42.3809H18.8322C18.613 42.3809 18.4102 42.3215 18.2651 42.1675C18.1223 42.0158 18.0684 41.8076 18.0684 41.5836V17.9599C18.0684 17.7358 18.1223 17.5278 18.2651 17.376C18.4102 17.222 18.613 17.1626 18.8322 17.1626V17.3781L18.7045 17.3865C18.424 17.4287 18.284 17.6198 18.2839 17.9599V41.5836L18.2923 41.7197C18.3266 41.975 18.4639 42.1208 18.7045 42.157L18.8322 42.1654H20.2384L20.3661 42.157C20.6064 42.1207 20.744 41.9749 20.7783 41.7197L20.7867 41.5836V19.7784C20.7867 19.3898 20.9693 19.1946 21.335 19.1945L21.5107 19.2238C21.6735 19.2837 21.7975 19.4341 21.8832 19.6738L29.153 41.5836C29.2932 41.9235 29.5027 42.1148 29.7829 42.157L29.9064 42.1654H32.8549L32.9784 42.157C33.2189 42.1208 33.4082 41.9751 33.5455 41.7197L33.6083 41.5836L40.8781 19.6738C40.9924 19.3543 41.1752 19.1946 41.4263 19.1945L41.554 19.2029C41.8347 19.2451 41.9746 19.4379 41.9746 19.7784V41.5836L41.983 41.7197C42.0172 41.9748 42.155 42.1206 42.3952 42.157L42.5229 42.1654H43.9291L44.0589 42.157C44.2983 42.1203 44.4348 41.9743 44.469 41.7197L44.4774 41.5836V17.9599C44.4773 17.6205 44.3381 17.4293 44.0589 17.3865L43.9291 17.3781V17.1626C44.1483 17.1626 44.3511 17.2221 44.4962 17.376C44.639 17.5278 44.6929 17.7358 44.6929 17.9599V41.5836C44.6929 41.8076 44.639 42.0158 44.4962 42.1675C44.3511 42.3214 44.1482 42.3809 43.9291 42.3809H42.5229C42.3038 42.3808 42.1008 42.3216 41.9558 42.1675C41.813 42.0158 41.7612 41.8076 41.7612 41.5836ZM22.9463 17.1626C23.1501 17.1626 23.3366 17.222 23.4925 17.3467C23.6072 17.4386 23.6977 17.5602 23.7687 17.7025L23.8336 17.8511L23.8357 17.8553L31.0343 38.769L31.1138 38.9365C31.1412 38.9808 31.1679 39.0148 31.1955 39.039C31.2464 39.0835 31.3059 39.106 31.3817 39.106V39.3194L31.2059 39.2901C31.0427 39.2303 30.9172 39.0806 30.8313 38.8402L23.6327 17.9264C23.5126 17.6061 23.3217 17.4263 23.0614 17.3865L22.9463 17.3781V17.1626ZM39.815 17.3781L39.6999 17.3865C39.4396 17.4263 39.2487 17.6062 39.1286 17.9264L31.93 38.8402C31.8158 39.1598 31.6326 39.319 31.3817 39.3194V39.106C31.457 39.1058 31.5152 39.0833 31.5658 39.039C31.6208 38.9908 31.6777 38.9068 31.727 38.769L38.9256 17.8553L38.9277 17.8511L38.9926 17.7025C39.0636 17.5602 39.1541 17.4386 39.2688 17.3467C39.4247 17.222 39.6112 17.1626 39.815 17.1626V17.3781ZM43.9291 17.1626V17.3781H39.815V17.1626H43.9291ZM22.9463 17.1626V17.3781H18.8322V17.1626H22.9463Z" fill="black"/>
</svg>
