<svg width="24" height="24" viewBox="0 0 24 24" fill="none" xmlns="http://www.w3.org/2000/svg">
<path d="M19.2 13.0059C19.2 12.3431 18.6627 11.8059 18 11.8059C17.3373 11.8059 16.8 12.3431 16.8 13.0059H19.2ZM14.2961 18.5491L14.7553 19.6578L14.2961 18.5491ZM10.8295 18.8906L10.5954 20.0675H10.5954L10.8295 18.8906ZM7.75736 17.2485L8.60589 16.4L8.60589 16.4L7.75736 17.2485ZM6.11529 14.1764L7.29223 13.9423L6.11529 14.1764ZM6.45673 10.7098L7.56538 11.169L6.45673 10.7098ZM8.66658 8.01704L9.33327 9.01481H9.33327L8.66658 8.01704ZM18 13.0059H16.8C16.8 13.9552 16.5185 14.8832 15.9911 15.6726L16.9888 16.3393L17.9866 17.006C18.7777 15.8219 19.2 14.4299 19.2 13.0059H18ZM16.9888 16.3393L15.9911 15.6726C15.4636 16.462 14.714 17.0772 13.8369 17.4405L14.2961 18.5491L14.7553 19.6578C16.071 19.1128 17.1954 18.19 17.9866 17.006L16.9888 16.3393ZM14.2961 18.5491L13.8369 17.4405C12.9598 17.8038 11.9947 17.8988 11.0636 17.7136L10.8295 18.8906L10.5954 20.0675C11.992 20.3453 13.4397 20.2027 14.7553 19.6578L14.2961 18.5491ZM10.8295 18.8906L11.0636 17.7136C10.1325 17.5284 9.27718 17.0713 8.60589 16.4L7.75736 17.2485L6.90883 18.097C7.91577 19.104 9.19869 19.7897 10.5954 20.0675L10.8295 18.8906ZM7.75736 17.2485L8.60589 16.4C7.9346 15.7287 7.47744 14.8734 7.29223 13.9423L6.11529 14.1764L4.93835 14.4105C5.21616 15.8072 5.9019 17.0901 6.90883 18.097L7.75736 17.2485ZM6.11529 14.1764L7.29223 13.9423C7.10702 13.0112 7.20208 12.0461 7.56538 11.169L6.45673 10.7098L5.34807 10.2505C4.80312 11.5662 4.66054 13.0138 4.93835 14.4105L6.11529 14.1764ZM6.45673 10.7098L7.56538 11.169C7.92868 10.2919 8.54391 9.54224 9.33327 9.01481L8.66658 8.01704L7.9999 7.01928C6.81586 7.81042 5.89302 8.93491 5.34807 10.2505L6.45673 10.7098ZM8.66658 8.01704L9.33327 9.01481C10.1226 8.48737 11.0507 8.20586 12 8.20586V7.00586V5.80586C10.576 5.80586 9.18393 6.22813 7.9999 7.01928L8.66658 8.01704Z" fill="black"/>
<path d="M11.4004 9.86719L11.4004 4.78613L15.6348 7.32617L11.4004 9.86719Z" fill="black" stroke="black" stroke-width="1.2"/>
</svg>
