<svg width="105" height="71" viewBox="0 0 105 71" fill="none" xmlns="http://www.w3.org/2000/svg">
<path d="M13.5443 44.6489V47.9823H1.68945V44.6489H13.5443Z" fill="black"/>
<path d="M101.61 43.8167V47.1501H60.9652V43.8167H101.61ZM101.61 3.81673H60.9652V47.1501L60.6196 47.1322C59.025 46.9731 57.758 45.7262 57.5963 44.1569L57.5781 43.8167V3.81673C57.5781 2.09065 58.9113 0.67174 60.6196 0.501302L60.9652 0.483398H101.61L101.956 0.501302C103.664 0.67174 104.997 2.09065 104.997 3.81673V43.8167L104.979 44.1569C104.818 45.7262 103.551 46.9731 101.956 47.1322L101.61 47.1501V3.81673Z" fill="black"/>
<path d="M37.2537 61.3171C37.2537 58.0954 34.5999 55.4837 31.3262 55.4837C28.0526 55.4837 25.3988 58.0954 25.3988 61.3171C25.3988 64.5387 28.0526 67.1504 31.3262 67.1504V70.4837C26.182 70.4837 22.0117 66.3797 22.0117 61.3171C22.0117 56.2544 26.182 52.1504 31.3262 52.1504C36.4705 52.1504 40.6408 56.2544 40.6408 61.3171C40.6408 66.3797 36.4705 70.4837 31.3262 70.4837V67.1504C34.5999 67.1504 37.2537 64.5387 37.2537 61.3171Z" fill="black"/>
<path d="M76.2087 61.3171C76.2087 58.0954 73.5549 55.4837 70.2813 55.4837C67.0077 55.4837 64.3539 58.0954 64.3539 61.3171C64.3539 64.5387 67.0077 67.1504 70.2813 67.1504V70.4837C65.137 70.4837 60.9668 66.3797 60.9668 61.3171C60.9668 56.2544 65.137 52.1504 70.2813 52.1504C75.4256 52.1504 79.5958 56.2544 79.5958 61.3171C79.5958 66.3797 75.4256 70.4837 70.2813 70.4837V67.1504C73.5549 67.1504 76.2087 64.5387 76.2087 61.3171Z" fill="black"/>
<path d="M57.5811 22.9795H37.9854L25.9521 35.4795H57.5811V38.8125H10.1611C6.41995 38.8126 3.38676 41.7977 3.38672 45.4795V59.6465H22.168C22.0673 60.1865 22.0117 60.7429 22.0117 61.3115C22.0117 61.8814 22.0678 62.4384 22.1689 62.9795H3.38672C1.51634 62.9793 0.00013615 61.4872 0 59.6465V45.4795C4.34188e-05 39.9567 4.54931 35.4796 10.1611 35.4795H21.2881L35.5283 20.6865L35.7793 20.4521C36.3904 19.9353 37.1721 19.6468 37.9854 19.6465H57.5811V22.9795ZM61.123 59.6465C61.0224 60.1865 60.9668 60.7429 60.9668 61.3115C60.9668 61.8814 61.0229 62.4384 61.124 62.9795H40.4834C40.5845 62.4384 40.6406 61.8814 40.6406 61.3115C40.6406 60.7429 40.5851 60.1865 40.4844 59.6465H61.123ZM95.6855 59.6465C95.6854 61.4872 94.1692 62.9793 92.2988 62.9795H79.4385C79.5396 62.4384 79.5957 61.8814 79.5957 61.3115C79.5957 60.7429 79.5401 60.1865 79.4395 59.6465H92.2988V46.3125H95.6855V59.6465Z" fill="black"/>
<path d="M82.5611 33.0017H80.2307C79.9598 33.0017 79.7611 32.8506 79.6346 32.5483L73.8901 15.5083C73.7998 15.2595 73.6552 15.135 73.4565 15.135C73.1675 15.135 73.023 15.2861 73.023 15.5883V32.5483C73.023 32.8506 72.8785 33.0017 72.5894 33.0017H71.4785C71.1894 33.0017 71.0449 32.8506 71.0449 32.5483V14.175C71.0449 13.8728 71.1894 13.7217 71.4785 13.7217H74.7301C74.983 13.7217 75.1636 13.8639 75.272 14.1483L80.9623 30.415C81.0527 30.6639 81.1972 30.7883 81.3959 30.7883C81.5946 30.7883 81.7391 30.6639 81.8294 30.415L87.5198 14.1483C87.6282 13.8639 87.8088 13.7217 88.0617 13.7217H91.3133C91.6023 13.7217 91.7469 13.8728 91.7469 14.175V32.5483C91.7469 32.8506 91.6023 33.0017 91.3133 33.0017H90.2023C89.9133 33.0017 89.7688 32.8506 89.7688 32.5483V15.5883C89.7688 15.2861 89.6243 15.135 89.3352 15.135C89.1365 15.135 88.992 15.2595 88.9017 15.5083L83.1572 32.5483C83.0307 32.8506 82.832 33.0017 82.5611 33.0017Z" fill="black"/>
<path d="M89.6039 32.5483V15.5887C89.6039 15.461 89.5726 15.3955 89.541 15.3625C89.5112 15.3313 89.4549 15.3006 89.3392 15.3006C89.2796 15.3006 89.2338 15.3184 89.1937 15.3527C89.1507 15.3898 89.1035 15.4539 89.0647 15.5594L89.0664 15.561L83.3225 32.6004L83.3176 32.6118C83.2466 32.7812 83.1505 32.9222 83.0215 33.0203C82.8901 33.1203 82.7349 33.1685 82.5651 33.1685H80.2348C80.065 33.1684 79.9097 33.1203 79.7783 33.0203C79.6493 32.9222 79.5532 32.7812 79.4823 32.6118L79.4773 32.6004L73.7335 15.561C73.6947 15.4559 73.6491 15.3897 73.6061 15.3527C73.566 15.3184 73.5202 15.3006 73.4606 15.3006C73.3449 15.3006 73.2886 15.3313 73.2588 15.3625C73.2273 15.3955 73.196 15.461 73.196 15.5887V32.5483C73.1959 32.7226 73.155 32.8845 73.0421 33.0024C72.9275 33.1223 72.7671 33.1684 72.594 33.1685H71.4826C71.3094 33.1685 71.1491 33.1222 71.0344 33.0024C70.9215 32.8845 70.879 32.7226 70.8789 32.5483V14.1743C70.879 14.0001 70.9215 13.8382 71.0344 13.7202C71.1491 13.6004 71.3093 13.5542 71.4826 13.5542V13.7218L71.3817 13.7284C71.16 13.7612 71.0493 13.9098 71.0493 14.1743V32.5483L71.0559 32.6541C71.083 32.8528 71.1915 32.9662 71.3817 32.9943L71.4826 33.0008H72.594L72.6948 32.9943C72.8847 32.966 72.9936 32.8526 73.0206 32.6541L73.0273 32.5483V15.5887C73.0273 15.2865 73.1716 15.1346 73.4606 15.1346L73.5995 15.1574C73.7281 15.204 73.8261 15.3209 73.8939 15.5073L79.6394 32.5483C79.7501 32.8127 79.9158 32.9615 80.1372 32.9943L80.2348 33.0008H82.5651L82.6626 32.9943C82.8527 32.9661 83.0023 32.8528 83.1108 32.6541L83.1604 32.5483L88.9059 15.5073C88.9963 15.2589 89.1407 15.1346 89.3392 15.1346L89.4401 15.1411C89.662 15.1739 89.7726 15.3239 89.7726 15.5887V32.5483L89.7792 32.6541C89.8062 32.8526 89.9151 32.966 90.105 32.9943L90.2059 33.0008H91.3173L91.4198 32.9943C91.609 32.9658 91.7169 32.8522 91.7439 32.6541L91.7506 32.5483V14.1743C91.7505 13.9104 91.6405 13.7616 91.4198 13.7284L91.3173 13.7218V13.5542C91.4904 13.5542 91.6507 13.6005 91.7655 13.7202C91.8783 13.8382 91.9209 14.0001 91.9209 14.1743V32.5483C91.9209 32.7226 91.8783 32.8845 91.7655 33.0024C91.6507 33.1222 91.4904 33.1685 91.3173 33.1685H90.2059C90.0327 33.1684 89.8723 33.1223 89.7577 33.0024C89.6448 32.8845 89.6039 32.7226 89.6039 32.5483ZM74.734 13.5542C74.8951 13.5542 75.0425 13.6004 75.1657 13.6974C75.2564 13.7689 75.3279 13.8634 75.384 13.9741L75.4353 14.0897L75.4369 14.0929L81.1262 30.3592L81.189 30.4894C81.2107 30.5239 81.2318 30.5504 81.2535 30.5692C81.2938 30.6038 81.3408 30.6213 81.4007 30.6213V30.7873L81.2618 30.7645C81.1328 30.718 81.0336 30.6015 80.9658 30.4146L75.2765 14.1483C75.1816 13.8992 75.0308 13.7593 74.825 13.7284L74.734 13.7218V13.5542ZM88.0658 13.7218L87.9748 13.7284C87.7691 13.7593 87.6182 13.8992 87.5233 14.1483L81.834 30.4146C81.7438 30.6631 81.5991 30.787 81.4007 30.7873V30.6213C81.4603 30.6211 81.5062 30.6037 81.5463 30.5692C81.5897 30.5317 81.6346 30.4664 81.6736 30.3592L87.3629 14.0929L87.3645 14.0897L87.4158 13.9741C87.4719 13.8634 87.5434 13.7689 87.6341 13.6974C87.7573 13.6004 87.9047 13.5542 88.0658 13.5542V13.7218ZM91.3173 13.5542V13.7218H88.0658V13.5542H91.3173ZM74.734 13.5542V13.7218H71.4826V13.5542H74.734Z" fill="black"/>
</svg>
