<svg width="24" height="24" viewBox="0 0 24 24" fill="none" xmlns="http://www.w3.org/2000/svg">
<path d="M12 3C15.866 3 19 6.13401 19 10C19 12.2581 17.9305 14.2658 16.2666 15.5469L15.9268 15.793C15.3908 16.157 15 16.7773 15 17.5039V19C15 20.6569 13.6569 22 12 22C10.3431 22 9 20.6569 9 19V17.5039C9 16.8683 8.70119 16.3138 8.26758 15.9414L8.07324 15.793C6.2165 14.532 5 12.4084 5 10C5 6.13401 8.13401 3 12 3Z" stroke="black" stroke-width="2"/>
<path d="M15 17.5H12M9 17.5H12M12 17.5V10.5M14.5 10.5H9.5" stroke="black" stroke-width="2" stroke-linecap="round" stroke-linejoin="round"/>
</svg>
