<svg width="156" height="43" viewBox="0 0 156 43" fill="none" xmlns="http://www.w3.org/2000/svg">
<g clip-path="url(#clip0_2675_18608)">
<g clip-path="url(#clip1_2675_18608)">
<path d="M91.1099 16.5276C90.6255 16.5276 90.2315 16.4113 89.9279 16.1788C89.6244 15.9463 89.4306 15.6298 89.353 15.2359C89.2756 14.8354 89.3273 14.3962 89.5145 13.9118L91.7299 8.13764C91.8655 7.77594 92.0723 7.44655 92.3371 7.14944C92.6083 6.85234 92.9119 6.60045 93.2477 6.40022L95.1595 5.30223C95.4372 5.14076 95.7214 5.01805 96.0121 4.92763C96.3092 4.83721 96.5999 4.79199 96.897 4.79199H99.8746C100.359 4.79199 100.753 4.90825 101.056 5.14076C101.36 5.37328 101.554 5.68976 101.638 6.08375C101.722 6.48419 101.67 6.92338 101.483 7.40779L99.2677 13.182C99.132 13.5371 98.9252 13.8665 98.6598 14.1572C98.3954 14.4543 98.0851 14.7062 97.7494 14.9065L95.8376 16.0044C95.5794 16.1595 95.2951 16.2821 94.9916 16.379C94.688 16.4759 94.3845 16.5276 94.0874 16.5276H91.1099ZM91.717 15.0291H95.9022C96.0444 15.0291 96.1929 14.9968 96.3415 14.9258C96.49 14.8547 96.6192 14.7643 96.7355 14.6352C96.8453 14.5125 96.9357 14.3833 96.9939 14.2412L99.7516 7.06547C99.816 6.91046 99.8355 6.77484 99.8102 6.65857C99.7838 6.54232 99.7262 6.44544 99.6355 6.38085C99.5448 6.31626 99.4218 6.28397 99.2735 6.28397H95.0885C94.9529 6.28397 94.8107 6.31626 94.6622 6.3873C94.5201 6.45836 94.3845 6.54878 94.2682 6.67149C94.152 6.79421 94.0615 6.92338 94.0098 7.06547L91.2455 14.2412C91.1874 14.3962 91.168 14.5318 91.1874 14.6481C91.2067 14.7643 91.2584 14.8612 91.3489 14.9258C91.4393 14.9904 91.562 15.0227 91.7106 15.0227" fill="black"/>
<path d="M100.972 16.5279C100.868 16.5279 100.797 16.4892 100.752 16.418C100.707 16.347 100.707 16.2567 100.74 16.1468L105.661 3.35198C105.804 2.9903 106.009 2.66091 106.275 2.37026C106.539 2.07961 106.843 1.82772 107.179 1.6275L109.091 0.51659C109.362 0.355121 109.64 0.232405 109.937 0.141982C110.234 0.051559 110.531 0.00634766 110.828 0.00634766H112.831C112.94 0.00634766 113.018 0.0451003 113.056 0.116147C113.102 0.187193 113.102 0.277616 113.07 0.387415L112.785 1.13664C112.74 1.23997 112.669 1.32393 112.565 1.39498C112.462 1.46603 112.358 1.50478 112.249 1.50478H109.007C108.871 1.50478 108.729 1.53708 108.58 1.60812C108.438 1.67917 108.309 1.76959 108.193 1.89231C108.083 2.00856 107.993 2.1442 107.941 2.28629L106.972 4.78584H110.602C110.706 4.78584 110.777 4.82459 110.822 4.89563C110.866 4.96668 110.866 5.0571 110.834 5.1669L110.544 5.91612C110.505 6.01946 110.44 6.10342 110.337 6.17447C110.234 6.24551 110.131 6.28427 110.033 6.28427H106.404L102.599 16.1468C102.561 16.2567 102.49 16.347 102.387 16.418C102.283 16.4892 102.18 16.5279 102.076 16.5279H100.959H100.972Z" fill="black"/>
<path d="M0.286953 16.5279C0.170695 16.5279 0.0867317 16.4826 0.0286023 16.3987C-0.0295266 16.3147 -0.0424442 16.2114 -0.0166091 16.1081L4.59495 1.46603C4.63371 1.33685 4.69183 1.23997 4.78226 1.17538C4.87268 1.1108 4.98247 1.08496 5.10519 1.08496H7.44326C7.55953 1.08496 7.66287 1.11726 7.75975 1.17538C7.85663 1.23997 7.92122 1.33039 7.95351 1.46603L12.5328 16.1016C12.5715 16.2114 12.5587 16.3083 12.5005 16.3923C12.4423 16.4762 12.3519 16.5215 12.2293 16.5215H11.0344C10.9181 16.5215 10.8148 16.4892 10.7243 16.4246C10.6339 16.36 10.5693 16.2631 10.5305 16.1275L9.2711 12.0842H3.14819L1.88873 16.1275C1.84997 16.2567 1.79185 16.3534 1.70142 16.4246C1.611 16.4892 1.51412 16.5215 1.39787 16.5215H0.286953V16.5279ZM3.62613 10.4825H8.79316L6.2161 2.09899L3.62613 10.4825Z" fill="black"/>
<path d="M14.2256 16.5282C14.1222 16.5282 14.0382 16.4895 13.9672 16.4183C13.8962 16.3473 13.8574 16.257 13.8574 16.1471V5.1672C13.8574 5.0574 13.8962 4.96698 13.9672 4.89593C14.0382 4.82489 14.1287 4.78613 14.2256 4.78613H15.3429C15.4463 4.78613 15.5302 4.82489 15.6013 4.89593C15.6723 4.96698 15.7111 5.0574 15.7111 5.1672V5.83245C16.0728 5.66453 16.3828 5.52244 16.6411 5.40617C16.8995 5.28991 17.1256 5.19304 17.3128 5.10908C17.5002 5.02511 17.6681 4.96052 17.8101 4.91531C17.9523 4.87009 18.0815 4.83781 18.1977 4.81843C18.314 4.79905 18.4238 4.79259 18.5335 4.79259H20.2839C20.3936 4.79259 20.4841 4.83135 20.5551 4.90239C20.6262 4.97344 20.665 5.06386 20.665 5.17366V6.06497C20.665 6.16831 20.6262 6.25227 20.5551 6.32978C20.4841 6.40728 20.3936 6.44604 20.2839 6.44604H16.1503C16.034 6.44604 15.9307 6.49125 15.8467 6.56875C15.7627 6.65271 15.7175 6.75606 15.7175 6.87878V16.1535C15.7175 16.2634 15.6788 16.3537 15.6013 16.4249C15.5237 16.4959 15.4333 16.5346 15.3365 16.5346H14.2191L14.2256 16.5282Z" fill="black"/>
<path d="M23.8678 16.5276C23.3834 16.5276 22.9442 16.4113 22.5438 16.1788C22.1498 15.9463 21.8333 15.6298 21.6008 15.2359C21.3683 14.8419 21.252 14.3962 21.252 13.9118V8.13764C21.252 7.77594 21.3295 7.44655 21.478 7.1559C21.6331 6.8588 21.8397 6.61337 22.111 6.41314L23.5901 5.30223C23.8033 5.14076 24.0358 5.01805 24.294 4.92763C24.5524 4.83721 24.8366 4.79199 25.1337 4.79199H29.5709C29.6742 4.79199 29.7582 4.83075 29.8357 4.90179C29.9132 4.97284 29.9519 5.06326 29.9519 5.17306V5.92228C29.9519 6.01916 29.9132 6.10312 29.8357 6.18063C29.7582 6.25813 29.6678 6.29688 29.5709 6.29688H23.8936C23.758 6.29688 23.6288 6.32918 23.5061 6.40022C23.3898 6.47127 23.293 6.56169 23.2219 6.68441C23.1509 6.80067 23.1186 6.9363 23.1186 7.07839V14.2541C23.1186 14.4091 23.1509 14.5448 23.2155 14.661C23.2801 14.7837 23.3704 14.8742 23.4867 14.9387C23.603 15.0033 23.7387 15.0356 23.8872 15.0356H29.9196C30.0165 15.0356 30.0747 15.0808 30.1069 15.1648C30.1392 15.2487 30.1134 15.3262 30.0359 15.3844L29.1317 16.069C28.9444 16.2046 28.7377 16.3208 28.5117 16.4049C28.2856 16.4953 28.0402 16.534 27.7624 16.534H23.8484L23.8678 16.5276Z" fill="black"/>
<path d="M32.1884 16.528C32.0851 16.528 32.0011 16.4893 31.9301 16.4181C31.859 16.3471 31.8203 16.2568 31.8203 16.1469V0.381067C31.8203 0.271268 31.859 0.180846 31.9301 0.109799C32.0011 0.0387526 32.0916 0 32.1884 0H33.3058C33.4092 0 33.4932 0.0387526 33.5706 0.109799C33.6481 0.180846 33.6869 0.271268 33.6869 0.381067V5.43828C34.1584 5.3414 34.5846 5.2639 34.9593 5.18639C35.3339 5.11535 35.6762 5.05076 35.9798 4.99908C36.2833 4.94742 36.561 4.89574 36.8129 4.85699C37.0649 4.81824 37.2908 4.78595 37.4976 4.76657C37.7043 4.74719 37.898 4.72781 38.0918 4.71491C38.2855 4.70199 38.4664 4.70199 38.6472 4.70199C39.1575 4.70199 39.6031 4.81178 39.9971 5.03138C40.3911 5.25098 40.6946 5.561 40.9207 5.94853C41.1468 6.34251 41.2565 6.78816 41.2565 7.29841V16.1469C41.2565 16.2568 41.2178 16.3471 41.1468 16.4181C41.0757 16.4893 40.9853 16.528 40.8884 16.528H39.771C39.6613 16.528 39.5708 16.4893 39.4998 16.4181C39.4287 16.3471 39.39 16.2568 39.39 16.1469V7.06589C39.39 6.91088 39.3577 6.77525 39.2931 6.65899C39.2285 6.54273 39.1381 6.44585 39.0153 6.38126C38.8927 6.31668 38.7635 6.28438 38.6214 6.28438H34.1326C34.0098 6.28438 33.9065 6.32314 33.8225 6.4071C33.7386 6.49107 33.6998 6.5944 33.6998 6.71712V16.1405C33.6998 16.2502 33.6611 16.3407 33.5835 16.4117C33.5061 16.4827 33.4156 16.5216 33.3187 16.5216H32.2013L32.1884 16.528Z" fill="black"/>
<path d="M44.1494 2.18306C44.0461 2.18306 43.962 2.14431 43.891 2.06681C43.82 1.9893 43.7812 1.90534 43.7812 1.80846V0.381067C43.7812 0.271268 43.82 0.180846 43.891 0.109799C43.962 0.0387526 44.0525 0 44.1494 0H45.2667C45.3701 0 45.454 0.0387526 45.5315 0.109799C45.6091 0.180846 45.6478 0.271268 45.6478 0.381067V1.81492C45.6478 1.9118 45.6091 1.99576 45.5315 2.07327C45.454 2.15077 45.3636 2.18952 45.2667 2.18952H44.1494V2.18306ZM44.1494 16.5216C44.0461 16.5216 43.962 16.4827 43.891 16.4117C43.82 16.3407 43.7812 16.2502 43.7812 16.1405V5.16701C43.7812 5.05722 43.82 4.9668 43.891 4.89574C43.962 4.8247 44.0525 4.78595 44.1494 4.78595H45.2667C45.3701 4.78595 45.454 4.8247 45.5315 4.89574C45.6091 4.9668 45.6478 5.05722 45.6478 5.16701V16.1469C45.6478 16.2568 45.6091 16.3471 45.5315 16.4181C45.454 16.4893 45.3636 16.528 45.2667 16.528H44.1494V16.5216Z" fill="black"/>
<path d="M50.8209 16.5278C50.3365 16.5278 49.8974 16.4114 49.4968 16.1789C49.1029 15.9464 48.7864 15.63 48.5539 15.236C48.3214 14.8356 48.2051 14.3963 48.2051 13.912V3.75874C48.2051 3.50038 48.3149 3.30017 48.5345 3.17099L49.6196 2.51866C49.7229 2.46053 49.8198 2.45407 49.9231 2.50574C50.0264 2.55741 50.0717 2.63492 50.0717 2.74471V4.77922H53.9664C54.0697 4.77922 54.1536 4.81798 54.2246 4.88902C54.2957 4.96007 54.3345 5.05049 54.3345 5.16029V5.90951C54.3345 6.01285 54.2957 6.09681 54.2246 6.16786C54.1536 6.2389 54.0632 6.27766 53.9664 6.27766H50.0717V14.2348C50.0717 14.3899 50.104 14.5255 50.1686 14.6418C50.2332 14.7644 50.3235 14.8549 50.4399 14.9195C50.5561 14.9841 50.6918 15.0164 50.8403 15.0164H54.328C54.4314 15.0164 54.496 15.0615 54.5283 15.1456C54.5605 15.2295 54.5283 15.307 54.4443 15.3652L53.5401 16.0497C53.3592 16.1854 53.1525 16.3017 52.9265 16.3856C52.7004 16.476 52.4486 16.5148 52.1708 16.5148H50.8016L50.8209 16.5278Z" fill="black"/>
<path d="M58.1822 16.5276C57.6978 16.5276 57.2586 16.4113 56.8582 16.1788C56.4642 15.9463 56.1477 15.6298 55.9152 15.2359C55.6826 14.8354 55.5664 14.3962 55.5664 13.9118V8.13764C55.5664 7.77594 55.6439 7.44655 55.7925 7.14944C55.9474 6.85234 56.1542 6.60045 56.4254 6.40022L57.9045 5.30223C58.1176 5.14076 58.3501 5.01805 58.6085 4.92763C58.8669 4.83721 59.151 4.79199 59.4481 4.79199H62.4709C62.9552 4.79199 63.4009 4.90825 63.7949 5.14076C64.1953 5.37328 64.5118 5.68976 64.7443 6.08375C64.9768 6.48419 65.0931 6.92338 65.0931 7.40779V8.55099C65.0931 9.0354 64.9768 9.4746 64.7443 9.86855C64.5118 10.2625 64.1953 10.5791 63.8013 10.8116C63.4073 11.0441 62.9682 11.1603 62.4837 11.1603H57.4395V14.2476C57.4395 14.4026 57.4718 14.5383 57.5364 14.6545C57.6009 14.7773 57.6913 14.8677 57.8076 14.9322C57.9238 14.9968 58.0595 15.0291 58.2081 15.0291H64.8477C64.951 15.0291 65.0156 15.0744 65.0479 15.1583C65.0802 15.2423 65.0544 15.3198 64.9768 15.3779L64.0661 16.0626C63.8852 16.1982 63.6786 16.3144 63.4525 16.3984C63.2265 16.4889 62.9746 16.5276 62.6969 16.5276H58.1758H58.1822ZM57.4395 9.65544H62.4514C62.6839 9.65544 62.8713 9.5844 63.0133 9.4423C63.1554 9.30021 63.2265 9.1129 63.2265 8.88039V7.05256C63.2265 6.8265 63.1554 6.64565 63.0069 6.49711C62.8648 6.35502 62.6775 6.27751 62.4514 6.27751H58.2081C58.0724 6.27751 57.9432 6.3098 57.8205 6.38085C57.6978 6.4519 57.6074 6.54232 57.5364 6.66503C57.4652 6.78129 57.4329 6.91047 57.4329 7.05256V9.64898L57.4395 9.65544Z" fill="black"/>
<path d="M69.8228 16.5276C69.3384 16.5276 68.8992 16.4113 68.4988 16.1788C68.1048 15.9463 67.7883 15.6298 67.5558 15.2359C67.3232 14.8419 67.207 14.3962 67.207 13.9118V8.13764C67.207 7.77594 67.2845 7.44655 67.4331 7.1559C67.588 6.8588 67.7948 6.61337 68.0661 6.41314L69.5451 5.30223C69.7582 5.14076 69.9907 5.01805 70.2491 4.92763C70.5075 4.83721 70.7916 4.79199 71.0887 4.79199H75.5259C75.6293 4.79199 75.7132 4.83075 75.7907 4.90179C75.8682 4.97284 75.907 5.06326 75.907 5.17306V5.92228C75.907 6.01916 75.8682 6.10312 75.7907 6.18063C75.7132 6.25813 75.6228 6.29688 75.5259 6.29688H69.8487C69.7131 6.29688 69.5839 6.32918 69.4611 6.40022C69.3384 6.47127 69.248 6.56169 69.1769 6.68441C69.1059 6.80067 69.0736 6.9363 69.0736 7.07839V14.2541C69.0736 14.4091 69.1059 14.5448 69.1705 14.661C69.2351 14.7837 69.3255 14.8742 69.4417 14.9387C69.558 15.0033 69.6936 15.0356 69.8422 15.0356H75.8747C75.9716 15.0356 76.0297 15.0808 76.062 15.1648C76.0943 15.2487 76.0685 15.3262 75.9909 15.3844L75.0867 16.069C74.8995 16.2046 74.6927 16.3208 74.4666 16.4049C74.2407 16.4953 73.9952 16.534 73.7175 16.534H69.8034L69.8228 16.5276Z" fill="black"/>
<path d="M80.317 16.5278C79.8326 16.5278 79.3934 16.4114 78.9929 16.1789C78.5989 15.9464 78.2825 15.63 78.05 15.236C77.8175 14.842 77.7012 14.3963 77.7012 13.912V3.75874C77.7012 3.50038 77.8109 3.30017 78.0306 3.17099L79.1157 2.51866C79.219 2.46053 79.3159 2.45407 79.4192 2.50574C79.5225 2.55741 79.5678 2.63492 79.5678 2.74471V4.77922H83.4624C83.5658 4.77922 83.6497 4.81798 83.7207 4.88902C83.7918 4.96007 83.8305 5.05049 83.8305 5.16029V5.90951C83.8305 6.01285 83.7918 6.09681 83.7207 6.16786C83.6497 6.2389 83.5593 6.27766 83.4624 6.27766H79.5678V14.2348C79.5678 14.3899 79.6001 14.5255 79.6647 14.6418C79.7292 14.7644 79.8196 14.8549 79.9359 14.9195C80.0522 14.9841 80.1878 15.0164 80.3364 15.0164H83.8241C83.9274 15.0164 83.992 15.0615 84.0243 15.1456C84.0566 15.2295 84.0243 15.307 83.9404 15.3652L83.0362 16.0497C82.8553 16.1854 82.6486 16.3017 82.4226 16.3856C82.1965 16.476 81.9446 16.5148 81.6669 16.5148H80.2976L80.317 16.5278Z" fill="black"/>
<path d="M3.1678 38.1392C2.7286 38.1392 2.30878 38.0553 1.92771 37.8874C1.54019 37.7194 1.20433 37.4934 0.913683 37.1963C0.623038 36.8992 0.390523 36.5632 0.222595 36.1758C0.054667 35.7882 -0.0292969 35.3814 -0.0292969 34.9421V26.6878C-0.0292969 26.2487 0.074043 25.8417 0.274265 25.48C0.474487 25.1183 0.745755 24.8148 1.08807 24.5694L2.88361 23.2195C3.11612 23.0515 3.36801 22.9224 3.63928 22.8319C3.91055 22.7416 4.19474 22.6963 4.47892 22.6963H10.4468C10.5502 22.6963 10.6341 22.735 10.7117 22.8062C10.7891 22.8772 10.8279 22.9675 10.8279 23.0774V23.917C10.8279 24.0203 10.7891 24.1043 10.7117 24.1818C10.6341 24.2593 10.5437 24.2981 10.4468 24.2981H3.54886C3.26468 24.2981 3.00633 24.3627 2.77381 24.4918C2.54129 24.621 2.36045 24.8019 2.22482 25.028C2.08918 25.254 2.02459 25.5188 2.02459 25.8159V35.0132C2.02459 35.3103 2.08918 35.5686 2.22482 35.7947C2.36045 36.0207 2.54129 36.2016 2.77381 36.3307C3.00633 36.4664 3.26468 36.531 3.54886 36.531H10.9958C11.0991 36.531 11.1637 36.5698 11.1896 36.6537C11.2154 36.7377 11.1896 36.8087 11.1121 36.8669L10.0787 37.6613C9.89138 37.7969 9.69115 37.9131 9.47801 37.9971C9.26487 38.0811 9.03236 38.1263 8.78693 38.1263H3.1678V38.1392Z" fill="black"/>
<path d="M13.3017 38.1389C13.1984 38.1389 13.1144 38.1001 13.0434 38.0291C12.9723 37.9581 12.9336 37.8676 12.9336 37.7578V21.992C12.9336 21.8822 12.9723 21.7917 13.0434 21.7207C13.1144 21.6497 13.2048 21.6108 13.3017 21.6108H14.4191C14.5224 21.6108 14.6065 21.6497 14.6839 21.7207C14.7614 21.7917 14.8001 21.8822 14.8001 21.992V27.0492C15.2717 26.9523 15.698 26.8683 16.0726 26.7972C16.4471 26.7262 16.7895 26.6616 17.0931 26.61C17.3966 26.5583 17.6743 26.5066 17.9262 26.4678C18.1781 26.4291 18.4041 26.3968 18.6109 26.3775C18.8175 26.3581 19.0113 26.3387 19.2051 26.3258C19.3923 26.3129 19.5797 26.3129 19.7605 26.3129C20.2708 26.3129 20.7164 26.4227 21.1104 26.6423C21.5044 26.8618 21.8079 27.1719 22.034 27.5594C22.2601 27.9534 22.3698 28.3991 22.3698 28.9093V37.7578C22.3698 37.8676 22.3311 37.9581 22.2601 38.0291C22.189 38.1001 22.0986 38.1389 22.0017 38.1389H20.8843C20.7745 38.1389 20.6841 38.1001 20.613 38.0291C20.542 37.9581 20.5033 37.8676 20.5033 37.7578V28.6768C20.5033 28.5283 20.471 28.3925 20.4064 28.2699C20.3418 28.1536 20.2514 28.0567 20.1286 27.9921C20.006 27.9275 19.8768 27.8952 19.7347 27.8952H15.2458C15.1231 27.8952 15.0198 27.9341 14.9358 28.018C14.8518 28.102 14.8131 28.2053 14.8131 28.328V37.7513C14.8131 37.8612 14.7744 37.9515 14.6968 38.0226C14.6193 38.0937 14.5289 38.1324 14.432 38.1324H13.3146L13.3017 38.1389Z" fill="black"/>
<path d="M27.3691 38.2298C26.8848 38.2298 26.4455 38.1135 26.0451 37.8809C25.6511 37.6484 25.3347 37.332 25.1086 36.938C24.8761 36.5376 24.7598 36.0983 24.7598 35.614V29.7559C24.7598 29.3942 24.8373 29.0648 24.9858 28.7741C25.1409 28.477 25.3475 28.2316 25.6188 28.0314L27.0979 26.9205C27.3045 26.759 27.5436 26.6362 27.8018 26.5459C28.0602 26.4554 28.3444 26.4102 28.6415 26.4102H33.8603C33.9636 26.4102 34.0475 26.449 34.1251 26.52C34.2025 26.5911 34.2413 26.6815 34.2413 26.7913V37.7712C34.2413 37.8809 34.2025 37.9714 34.1251 38.0424C34.0475 38.1135 33.9571 38.1523 33.8603 38.1523H32.7493C32.6395 38.1523 32.5491 38.1135 32.4781 38.0424C32.407 37.9714 32.3683 37.8809 32.3683 37.7712V37.4999C31.8967 37.5968 31.4704 37.6743 31.0894 37.7518C30.7083 37.8293 30.366 37.8875 30.056 37.9391C29.746 37.9908 29.4683 38.0424 29.2163 38.0812C28.9645 38.12 28.732 38.1523 28.5188 38.1716C28.3057 38.191 28.1055 38.2103 27.9182 38.2233C27.7308 38.2362 27.5436 38.2426 27.3627 38.2426M27.395 36.6538H31.929C32.0518 36.6538 32.1551 36.6086 32.2391 36.5246C32.323 36.4407 32.3617 36.3374 32.3617 36.2211V27.9151H27.395C27.2594 27.9151 27.1302 27.9474 27.0074 28.0184C26.8848 28.0895 26.7943 28.1799 26.7233 28.3027C26.6523 28.4253 26.62 28.5545 26.62 28.6966V35.8723C26.62 36.0208 26.6523 36.1629 26.7169 36.2792C26.7814 36.3954 26.8718 36.4923 26.9881 36.5569C27.1043 36.6215 27.2399 36.6538 27.3885 36.6538" fill="black"/>
<path d="M37.2392 38.1384C37.1359 38.1384 37.0519 38.0997 36.9809 38.0287C36.9098 37.9576 36.8711 37.8672 36.8711 37.7574V26.7775C36.8711 26.6677 36.9098 26.5773 36.9809 26.5062C37.0519 26.4351 37.1423 26.3964 37.2392 26.3964H38.3566C38.4599 26.3964 38.5439 26.4351 38.6149 26.5062C38.686 26.5773 38.7248 26.6677 38.7248 26.7775V27.0488C39.2027 26.9519 39.6289 26.8679 40.0101 26.7968C40.3846 26.7258 40.7269 26.6612 41.037 26.6096C41.347 26.5579 41.6247 26.5062 41.8766 26.4674C42.1285 26.4287 42.361 26.3964 42.5741 26.3771C42.7873 26.3577 42.9876 26.3383 43.1748 26.3254C43.3621 26.3125 43.5495 26.3125 43.7303 26.3125C44.2211 26.3125 44.6668 26.4287 45.0607 26.6548C45.4547 26.8809 45.7713 27.1973 46.0038 27.5977C46.2363 27.9982 46.3525 28.4439 46.3525 28.9347V37.7639C46.3525 37.8736 46.3138 37.9641 46.2363 38.0351C46.1587 38.1062 46.0684 38.1449 45.9715 38.1449H44.8541C44.7508 38.1449 44.6668 38.1062 44.5957 38.0351C44.5247 37.9641 44.486 37.8736 44.486 37.7639V28.6828C44.486 28.5343 44.4537 28.3987 44.3826 28.2759C44.3116 28.1596 44.2211 28.0627 44.1048 27.9982C43.9886 27.9336 43.853 27.9014 43.7044 27.9014H39.1704C39.0542 27.9014 38.9573 27.9401 38.8733 28.024C38.7893 28.108 38.7505 28.2113 38.7505 28.3341V37.7574C38.7505 37.8672 38.7118 37.9576 38.6343 38.0287C38.5568 38.0997 38.4664 38.1384 38.3695 38.1384H37.2392Z" fill="black"/>
<path d="M49.5495 42.9253C49.4462 42.9253 49.3622 42.8866 49.2911 42.8155C49.2201 42.7444 49.1814 42.654 49.1814 42.5572V41.8079C49.1814 41.6981 49.2201 41.6077 49.2911 41.5367C49.3622 41.4656 49.4526 41.4269 49.5495 41.4269H55.5755C55.7176 41.4269 55.8533 41.3946 55.9695 41.3235C56.0858 41.2524 56.1827 41.1621 56.2537 41.0393C56.3248 40.923 56.3571 40.7874 56.3571 40.6518V37.487C55.8856 37.5838 55.4593 37.6614 55.0782 37.7389C54.6972 37.8164 54.3548 37.8745 54.0448 37.9262C53.7348 37.9778 53.457 38.0295 53.2051 38.0683C52.9533 38.107 52.7208 38.1393 52.5076 38.1587C52.2945 38.1781 52.0943 38.1975 51.9069 38.2103C51.7197 38.2233 51.5323 38.2298 51.3514 38.2298C50.8671 38.2298 50.4214 38.1135 50.0274 37.8875C49.627 37.6614 49.317 37.3449 49.0845 36.9445C48.8584 36.544 48.7422 36.0983 48.7422 35.614V29.7559C48.7422 29.3942 48.8197 29.0648 48.9682 28.7741C49.1232 28.477 49.3299 28.2316 49.6011 28.0314L51.0802 26.9205C51.2934 26.759 51.5259 26.6362 51.7843 26.5459C52.0425 26.4554 52.3268 26.4102 52.6239 26.4102H57.8426C57.9459 26.4102 58.0298 26.449 58.1074 26.52C58.1849 26.5911 58.2236 26.6815 58.2236 26.7913V39.5861C58.2236 39.9414 58.1461 40.2708 57.9911 40.5679C57.8361 40.8714 57.6294 41.1168 57.3646 41.3106L55.8726 42.4086C55.6724 42.5636 55.4399 42.6863 55.1751 42.7832C54.9103 42.88 54.6326 42.9317 54.3289 42.9317H49.5431L49.5495 42.9253ZM51.3903 36.6409H55.9243C56.047 36.6409 56.1504 36.5956 56.2343 36.5117C56.3183 36.4277 56.3571 36.3244 56.3571 36.2082V27.9022H51.3903C51.2547 27.9022 51.1255 27.9345 51.0027 28.0055C50.88 28.0766 50.7895 28.167 50.7185 28.2897C50.6475 28.4124 50.6152 28.5416 50.6152 28.6837V35.8594C50.6152 36.008 50.6475 36.15 50.7121 36.2663C50.7766 36.3825 50.8671 36.4794 50.9833 36.544C51.0996 36.6086 51.2352 36.6409 51.3837 36.6409" fill="black"/>
<path d="M63.332 38.139C62.8476 38.139 62.4084 38.0228 62.008 37.7903C61.614 37.5578 61.2974 37.2413 61.0714 36.8408C60.8389 36.4404 60.7227 36.0011 60.7227 35.5168V29.7426C60.7227 29.3809 60.8001 29.0515 60.9487 28.7544C61.1037 28.4573 61.3104 28.2055 61.5817 28.0052L63.0607 26.9073C63.2739 26.7458 63.5064 26.623 63.7647 26.5326C64.0231 26.4421 64.3072 26.397 64.6043 26.397H67.6271C68.1114 26.397 68.5572 26.5133 68.9511 26.7458C69.3516 26.9783 69.668 27.2947 69.9005 27.6887C70.133 28.0892 70.2493 28.5284 70.2493 29.0128V30.156C70.2493 30.6404 70.133 31.0796 69.9005 31.4736C69.668 31.8675 69.358 32.184 68.9576 32.4165C68.5636 32.6491 68.1244 32.7654 67.6335 32.7654H62.5892V35.8526C62.5892 36.0077 62.6215 36.1368 62.6861 36.2595C62.7507 36.3822 62.8411 36.4727 62.9573 36.5373C63.0736 36.6019 63.2093 36.6342 63.3579 36.6342H70.0038C70.1073 36.6342 70.1718 36.6793 70.2041 36.7633C70.2364 36.8537 70.2106 36.9247 70.133 36.9829L69.2224 37.6675C69.0415 37.8032 68.8348 37.9194 68.6088 38.0034C68.3827 38.0874 68.1309 38.1326 67.8531 38.1326H63.332V38.139ZM62.5892 31.2669H67.6012C67.8338 31.2669 68.021 31.1958 68.1632 31.0538C68.3052 30.9117 68.3763 30.7244 68.3763 30.4918V28.664C68.3763 28.438 68.3052 28.2571 68.1567 28.1086C68.0146 27.96 67.8273 27.8889 67.6012 27.8889H63.3579C63.2221 27.8889 63.093 27.9212 62.9703 27.9923C62.8476 28.0633 62.7571 28.1537 62.6861 28.2765C62.615 28.3927 62.5828 28.5284 62.5828 28.664V31.2604L62.5892 31.2669Z" fill="black"/>
</g>
</g>
<g clip-path="url(#clip2_2675_18608)">
<g clip-path="url(#clip3_2675_18608)">
<path d="M77.4998 26.9716C77.4998 25.4216 78.7721 24.1492 80.3222 24.1492H150.715C152.266 24.1492 153.538 25.4216 153.538 26.9716V38.1645H154.945V26.9716C154.945 24.6401 153.047 22.7412 150.715 22.7412H80.3222C77.9906 22.7412 76.0918 24.6401 76.0918 26.9716V38.1645H77.4998V26.9716Z" fill="black"/>
<path d="M89.1509 35.3421C89.1509 35.4584 89.0799 35.4972 88.9572 35.4972H87.898C87.7753 35.4972 87.7365 35.4584 87.7365 35.3357V32.4487C87.7365 32.313 87.6461 32.242 87.5104 32.242H84.7268C84.6041 32.242 84.533 32.313 84.533 32.4487V35.3357C84.533 35.4584 84.4619 35.4972 84.3522 35.4972H83.2671C83.1637 35.4972 83.125 35.4584 83.125 35.3421V28.1666C83.125 28.0568 83.1637 27.9922 83.2671 27.9922H84.3522C84.4619 27.9922 84.533 28.0503 84.533 28.1666V30.9438C84.533 31.073 84.6041 31.1376 84.7268 31.1376H87.5104C87.6461 31.1376 87.7365 31.0795 87.7365 30.9438V28.1666C87.7365 28.0568 87.7753 27.9922 87.898 27.9922H88.9572C89.0799 27.9922 89.1509 28.0503 89.1509 28.1666V35.3421Z" fill="black"/>
<path d="M91.7222 35.6007C90.9407 35.6007 90.5273 34.9677 90.5273 34.4253V29.9623C90.5273 29.8332 90.579 29.7686 90.7017 29.7686H91.7222C91.8255 29.7686 91.8966 29.8267 91.8966 29.9623V34.2703C91.8966 34.393 91.9482 34.4576 92.0904 34.4576H93.9633C94.086 34.4576 94.17 34.3994 94.17 34.2703V29.9623C94.17 29.8332 94.2217 29.7686 94.3444 29.7686H95.3649C95.4747 29.7686 95.5522 29.8267 95.5522 29.9623V36.4662C95.5522 36.6277 95.5005 36.7827 95.4295 36.9377L94.7319 38.0744C94.6738 38.1778 94.5769 38.2359 94.4801 38.2359H94.3509C94.2282 38.2359 94.1765 38.1648 94.1765 38.055V35.1745C94.1765 35.0517 94.1055 35 93.9956 35.0323L92.0387 35.5813C91.9482 35.6007 91.832 35.6007 91.7416 35.6007" fill="black"/>
<path d="M98.0837 35.5942C97.4636 35.5942 96.9082 35.0839 96.9082 34.4187V29.9687C96.9082 29.8395 96.9599 29.7749 97.0826 29.7749H98.116C98.2064 29.7749 98.2774 29.8331 98.2774 29.9687V34.2766C98.2774 34.3993 98.342 34.451 98.4841 34.451H100.357C100.48 34.451 100.557 34.3993 100.557 34.2766V29.9687C100.557 29.8395 100.596 29.7749 100.725 29.7749H101.746C101.856 29.7749 101.927 29.8331 101.927 29.9687V35.3488C101.927 35.465 101.856 35.5038 101.746 35.5038H100.725C100.603 35.5038 100.557 35.465 100.557 35.3423V35.1808C100.557 35.0516 100.48 34.9935 100.364 35.0387L98.4066 35.5684C98.3033 35.6007 98.1935 35.6007 98.0901 35.6007" fill="black"/>
<path d="M108.308 30.8789V35.3483C108.308 35.4646 108.237 35.5033 108.127 35.5033H107.107C106.984 35.5033 106.945 35.4646 106.945 35.3418V31.0339C106.945 30.9047 106.861 30.8337 106.739 30.8337H104.872C104.73 30.8337 104.666 30.9047 104.666 31.0339V35.3418C104.666 35.4646 104.594 35.5033 104.504 35.5033H103.477C103.354 35.5033 103.303 35.4646 103.303 35.3483V29.9683C103.303 29.8391 103.354 29.7745 103.477 29.7745H104.504C104.594 29.7745 104.666 29.8326 104.666 29.9683V30.1427C104.666 30.2589 104.717 30.3041 104.872 30.2654L106.823 29.7357C106.926 29.7164 107.016 29.6841 107.12 29.6841C107.792 29.6841 108.315 30.246 108.315 30.8789" fill="black"/>
<path d="M109.477 34.4121V31.8415C109.477 31.2926 109.709 30.8663 110.2 30.6015L111.279 29.9686C111.505 29.8264 111.731 29.7618 111.995 29.7618H112.938C113.074 29.7618 113.132 29.7102 113.132 29.5875V27.4755C113.132 27.3657 113.184 27.2817 113.281 27.2817H114.321C114.443 27.2817 114.495 27.3657 114.495 27.4755V35.3357C114.495 35.452 114.443 35.4907 114.321 35.4907H113.281C113.177 35.4907 113.132 35.452 113.132 35.3293V35.1678C113.132 35.0386 113.074 34.9805 112.938 35.0257L110.969 35.5553C110.852 35.594 110.762 35.594 110.665 35.594C110.135 35.6134 109.483 35.1226 109.483 34.4185M113.139 34.2765V31.0407C113.139 30.8986 113.081 30.8276 112.932 30.8276H111.046C110.904 30.8276 110.852 30.8986 110.852 31.0407V34.2765C110.852 34.3992 110.904 34.4508 111.046 34.4508H112.932C113.081 34.4508 113.139 34.3992 113.139 34.2765Z" fill="black"/>
<path d="M116.854 35.5942C116.208 35.5942 115.672 35.071 115.672 34.4187V31.8482C115.672 31.2991 115.904 30.8794 116.389 30.6145L117.48 29.9816C117.706 29.8395 117.932 29.7749 118.184 29.7749H120.522C120.632 29.7749 120.697 29.8331 120.697 29.9687V35.3488C120.697 35.465 120.639 35.5038 120.522 35.5038H119.483C119.366 35.5038 119.328 35.465 119.328 35.3423V35.1808C119.328 35.0516 119.256 34.9935 119.121 35.0387L117.164 35.5684C117.048 35.6007 116.957 35.6007 116.86 35.6007M119.328 34.283V31.0473C119.328 30.9052 119.256 30.8341 119.121 30.8341H117.235C117.093 30.8341 117.041 30.9052 117.041 31.0473V34.283C117.041 34.4058 117.093 34.4575 117.235 34.4575H119.121C119.256 34.4575 119.328 34.4058 119.328 34.283Z" fill="black"/>
<path d="M123.428 28.3155C123.428 28.4382 123.363 28.477 123.253 28.477H122.233C122.104 28.477 122.059 28.4382 122.059 28.3155V27.4823C122.059 27.3725 122.097 27.2886 122.233 27.2886H123.253C123.363 27.2886 123.428 27.3725 123.428 27.4823V28.3155ZM123.428 35.3425C123.428 35.4588 123.363 35.4976 123.253 35.4976H122.233C122.104 35.4976 122.059 35.4588 122.059 35.3425V29.9625C122.059 29.8333 122.097 29.7687 122.233 29.7687H123.253C123.363 29.7687 123.428 29.8333 123.428 29.9625V35.3425Z" fill="black"/>
<path d="M126.229 34.0246V30.1559C126.229 29.5875 126.475 29.1483 126.972 28.8512L128.167 28.186C128.38 28.0568 128.638 27.9922 128.871 27.9922H131.403C131.525 27.9922 131.583 28.0503 131.583 28.1795V28.9222C131.583 29.0321 131.525 29.0837 131.403 29.0837H127.863C127.74 29.0837 127.689 29.1548 127.689 29.2904V34.2119C127.689 34.3411 127.74 34.4057 127.863 34.4057H131.506C131.622 34.4057 131.693 34.4573 131.693 34.5607C131.693 34.6769 131.641 34.7673 131.525 34.8254L130.647 35.3163C130.414 35.452 130.162 35.5036 129.917 35.5036H127.715C126.991 35.5036 126.223 34.9869 126.223 34.0375" fill="black"/>
<path d="M133.756 35.5942C133.117 35.5942 132.574 35.071 132.574 34.4187V31.8482C132.574 31.2991 132.813 30.8794 133.291 30.6145L134.383 29.9816C134.609 29.8395 134.835 29.7749 135.087 29.7749H137.425C137.541 29.7749 137.599 29.8331 137.599 29.9687V35.3488C137.599 35.465 137.541 35.5038 137.425 35.5038H136.385C136.275 35.5038 136.23 35.465 136.23 35.3423V35.1808C136.23 35.0516 136.159 34.9935 136.023 35.0387L134.066 35.5684C133.956 35.6007 133.859 35.6007 133.756 35.6007M136.23 34.283V31.0473C136.23 30.9052 136.159 30.8341 136.023 30.8341H134.137C133.995 30.8341 133.943 30.9052 133.943 31.0473V34.283C133.943 34.4058 133.995 34.4575 134.137 34.4575H136.023C136.159 34.4575 136.23 34.4058 136.23 34.283Z" fill="black"/>
<path d="M142.708 30.6724C142.708 30.7758 142.636 30.8274 142.527 30.8274H140.518C140.382 30.8274 140.33 30.8985 140.33 31.0277V35.3356C140.33 35.4583 140.253 35.4971 140.15 35.4971H139.117C138.994 35.4971 138.955 35.4518 138.955 35.342V29.962C138.955 29.8328 138.994 29.7682 139.117 29.7682H140.15C140.253 29.7682 140.33 29.8263 140.33 29.962V30.1235C140.33 30.2397 140.382 30.2849 140.518 30.2849C140.55 30.2849 140.589 30.2849 140.634 30.2655L141.222 29.878C141.435 29.7682 141.661 29.7036 141.926 29.7036H142.527C142.636 29.7036 142.708 29.7617 142.708 29.878V30.6724Z" fill="black"/>
<path d="M142.912 34.4121V31.8415C142.912 31.2926 143.145 30.8663 143.636 30.6015L144.721 29.9686C144.947 29.8264 145.173 29.7618 145.438 29.7618H146.374C146.51 29.7618 146.568 29.7102 146.568 29.5875V27.4755C146.568 27.3657 146.619 27.2817 146.717 27.2817H147.756C147.879 27.2817 147.93 27.3657 147.93 27.4755V35.3357C147.93 35.452 147.879 35.4907 147.756 35.4907H146.717C146.613 35.4907 146.568 35.452 146.568 35.3293V35.1678C146.568 35.0386 146.51 34.9805 146.374 35.0257L144.404 35.5553C144.295 35.594 144.198 35.594 144.101 35.594C143.571 35.6134 142.919 35.1226 142.919 34.4185M146.574 34.2765V31.0407C146.574 30.8986 146.516 30.8276 146.368 30.8276H144.482C144.34 30.8276 144.288 30.8986 144.288 31.0407V34.2765C144.288 34.3992 144.34 34.4508 144.482 34.4508H146.368C146.51 34.4508 146.574 34.3992 146.574 34.2765Z" fill="black"/>
</g>
</g>
<defs>
<clipPath id="clip0_2675_18608">
<rect width="113.124" height="42.9314" fill="white"/>
</clipPath>
<clipPath id="clip1_2675_18608">
<rect width="113.183" height="42.9314" fill="white" transform="translate(-0.0292969)"/>
</clipPath>
<clipPath id="clip2_2675_18608">
<rect width="78.8475" height="15.4943" fill="white" transform="translate(76.2969 22.7412)"/>
</clipPath>
<clipPath id="clip3_2675_18608">
<rect width="79.2595" height="15.4943" fill="white" transform="translate(76.0918 22.7412)"/>
</clipPath>
</defs>
</svg>
