<svg width="176" height="35" viewBox="0 0 176 35" fill="none" xmlns="http://www.w3.org/2000/svg">
<g clip-path="url(#clip0_3185_5226)">
<g clip-path="url(#clip1_3185_5226)">
<path d="M2.67781 9.42475C2.67781 5.97141 5.51243 3.13679 8.96576 3.13679H165.79C169.245 3.13679 172.079 5.97141 172.079 9.42475V34.3608H175.215V9.42475C175.215 4.23035 170.985 0 165.79 0H8.96576C3.77136 0 -0.458984 4.23035 -0.458984 9.42475V34.3608H2.67781V9.42475Z" fill="white"/>
<path d="M28.6348 28.0725C28.6348 28.3316 28.4766 28.418 28.2032 28.418H25.8434C25.5701 28.418 25.4836 28.3316 25.4836 28.0582V21.6264C25.4836 21.3242 25.2822 21.1659 24.98 21.1659H18.7784C18.5051 21.1659 18.3468 21.3242 18.3468 21.6264V28.0582C18.3468 28.3316 18.1884 28.418 17.9439 28.418H15.5265C15.2963 28.418 15.21 28.3316 15.21 28.0725V12.0865C15.21 11.8419 15.2963 11.698 15.5265 11.698H17.9439C18.1884 11.698 18.3468 11.8275 18.3468 12.0865V18.2738C18.3468 18.5615 18.5051 18.7054 18.7784 18.7054H24.98C25.2822 18.7054 25.4836 18.576 25.4836 18.2738V12.0865C25.4836 11.8419 25.5701 11.698 25.8434 11.698H28.2032C28.4766 11.698 28.6348 11.8275 28.6348 12.0865V28.0725Z" fill="white"/>
<path d="M34.3631 28.6492C32.622 28.6492 31.7012 27.239 31.7012 26.0304V16.0876C31.7012 15.7999 31.8163 15.656 32.0896 15.656H34.3631C34.5933 15.656 34.7516 15.7855 34.7516 16.0876V25.6851C34.7516 25.9585 34.8667 26.1024 35.1833 26.1024H39.356C39.6294 26.1024 39.8165 25.9728 39.8165 25.6851V16.0876C39.8165 15.7999 39.9316 15.656 40.2051 15.656H42.4784C42.7231 15.656 42.8957 15.7855 42.8957 16.0876V30.5773C42.8957 30.9371 42.7806 31.2824 42.6223 31.6277L41.0683 34.1602C40.9389 34.3904 40.723 34.5199 40.5072 34.5199H40.2194C39.946 34.5199 39.8309 34.3616 39.8309 34.1169V27.6996C39.8309 27.4261 39.6727 27.311 39.428 27.3829L35.0682 28.606C34.8667 28.6492 34.6077 28.6492 34.4063 28.6492" fill="white"/>
<path d="M48.5358 28.6346C47.1544 28.6346 45.917 27.4979 45.917 26.0158V16.1019C45.917 15.8141 46.0321 15.6702 46.3055 15.6702H48.6078C48.8092 15.6702 48.9674 15.7997 48.9674 16.1019V25.6993C48.9674 25.9726 49.1113 26.0877 49.4278 26.0877H53.6007C53.874 26.0877 54.0468 25.9726 54.0468 25.6993V16.1019C54.0468 15.8141 54.1331 15.6702 54.4209 15.6702H56.6942C56.9389 15.6702 57.0972 15.7997 57.0972 16.1019V28.0879C57.0972 28.3469 56.9389 28.4332 56.6942 28.4332H54.4209C54.1474 28.4332 54.0468 28.3469 54.0468 28.0734V27.7137C54.0468 27.4259 53.874 27.2964 53.615 27.3972L49.2552 28.5771C49.025 28.6491 48.7803 28.6491 48.5501 28.6491" fill="white"/>
<path d="M71.3145 18.1302V28.0874C71.3145 28.3464 71.1562 28.4327 70.9115 28.4327H68.6382C68.3647 28.4327 68.2784 28.3464 68.2784 28.0729V18.4755C68.2784 18.1877 68.0913 18.0294 67.8179 18.0294H63.6595C63.343 18.0294 63.1992 18.1877 63.1992 18.4755V28.0729C63.1992 28.3464 63.0408 28.4327 62.8394 28.4327H60.5516C60.2782 28.4327 60.1631 28.3464 60.1631 28.0874V16.1014C60.1631 15.8136 60.2782 15.6697 60.5516 15.6697H62.8394C63.0408 15.6697 63.1992 15.7992 63.1992 16.1014V16.4899C63.1992 16.7489 63.3141 16.8496 63.6595 16.7633L68.005 15.5834C68.2352 15.5402 68.4366 15.4683 68.6668 15.4683C70.1634 15.4683 71.3288 16.7201 71.3288 18.1302" fill="white"/>
<path d="M73.917 26.0011V20.2743C73.917 19.0512 74.435 18.1016 75.5286 17.5117L77.9316 16.1016C78.4351 15.7849 78.9387 15.641 79.5287 15.641H81.6295C81.9316 15.641 82.0612 15.5259 82.0612 15.2525V10.5474C82.0612 10.3028 82.1763 10.1157 82.3921 10.1157H84.7087C84.9822 10.1157 85.0973 10.3028 85.0973 10.5474V28.0587C85.0973 28.3177 84.9822 28.404 84.7087 28.404H82.3921C82.1619 28.404 82.0612 28.3177 82.0612 28.0444V27.6846C82.0612 27.3969 81.9316 27.2673 81.6295 27.3681L77.2409 28.548C76.9819 28.6342 76.7805 28.6342 76.5646 28.6342C75.3847 28.6774 73.9315 27.5839 73.9315 26.0154M82.0756 25.6989V18.49C82.0756 18.1735 81.9461 18.0153 81.6151 18.0153H77.4135C77.097 18.0153 76.9819 18.1735 76.9819 18.49V25.6989C76.9819 25.9723 77.097 26.0874 77.4135 26.0874H81.6151C81.9461 26.0874 82.0756 25.9723 82.0756 25.6989Z" fill="white"/>
<path d="M90.3501 28.6346C88.9112 28.6346 87.7168 27.4692 87.7168 26.0158V20.2891C87.7168 19.0659 88.2349 18.1307 89.314 17.5407L91.7457 16.1306C92.2494 15.8141 92.753 15.6702 93.3142 15.6702H98.523C98.7675 15.6702 98.9115 15.7997 98.9115 16.1019V28.0879C98.9115 28.3469 98.7819 28.4332 98.523 28.4332H96.2064C95.9473 28.4332 95.861 28.3469 95.861 28.0734V27.7137C95.861 27.4259 95.7028 27.2964 95.4006 27.3972L91.0407 28.5771C90.7817 28.6491 90.5803 28.6491 90.3644 28.6491M95.861 25.7136V18.5048C95.861 18.1882 95.7028 18.0299 95.4006 18.0299H91.199C90.8825 18.0299 90.7673 18.1882 90.7673 18.5048V25.7136C90.7673 25.9871 90.8825 26.1022 91.199 26.1022H95.4006C95.7028 26.1022 95.861 25.9871 95.861 25.7136Z" fill="white"/>
<path d="M104.999 12.4182C104.999 12.6916 104.855 12.7779 104.61 12.7779H102.337C102.049 12.7779 101.948 12.6916 101.948 12.4182V10.562C101.948 10.3174 102.035 10.1304 102.337 10.1304H104.61C104.855 10.1304 104.999 10.3174 104.999 10.562V12.4182ZM104.999 28.0733C104.999 28.3323 104.855 28.4188 104.61 28.4188H102.337C102.049 28.4188 101.948 28.3323 101.948 28.0733V16.0874C101.948 15.7997 102.035 15.6558 102.337 15.6558H104.61C104.855 15.6558 104.999 15.7997 104.999 16.0874V28.0733Z" fill="white"/>
<path d="M111.241 25.1372V16.5184C111.241 15.252 111.788 14.2736 112.896 13.6117L115.558 12.1297C116.032 11.8419 116.608 11.698 117.126 11.698H122.767C123.04 11.698 123.169 11.8275 123.169 12.1153V13.77C123.169 14.0147 123.04 14.1298 122.767 14.1298H114.881C114.608 14.1298 114.493 14.288 114.493 14.5902V25.5545C114.493 25.8423 114.608 25.9863 114.881 25.9863H122.997C123.256 25.9863 123.414 26.1014 123.414 26.3316C123.414 26.5905 123.299 26.792 123.04 26.9215L121.083 28.0151C120.565 28.3172 120.004 28.4323 119.457 28.4323H114.55C112.939 28.4323 111.227 27.2813 111.227 25.166" fill="white"/>
<path d="M128.006 28.6346C126.582 28.6346 125.373 27.4692 125.373 26.0158V20.2891C125.373 19.0659 125.905 18.1307 126.97 17.5407L129.402 16.1306C129.906 15.8141 130.409 15.6702 130.97 15.6702H136.179C136.438 15.6702 136.568 15.7997 136.568 16.1019V28.0879C136.568 28.3469 136.438 28.4332 136.179 28.4332H133.862C133.618 28.4332 133.517 28.3469 133.517 28.0734V27.7137C133.517 27.4259 133.359 27.2964 133.056 27.3972L128.697 28.5771C128.452 28.6491 128.236 28.6491 128.006 28.6491M133.517 25.7136V18.5048C133.517 18.1882 133.359 18.0299 133.056 18.0299H128.855C128.539 18.0299 128.423 18.1882 128.423 18.5048V25.7136C128.423 25.9871 128.539 26.1022 128.855 26.1022H133.056C133.359 26.1022 133.517 25.9871 133.517 25.7136Z" fill="white"/>
<path d="M147.949 17.6701C147.949 17.9003 147.79 18.0154 147.546 18.0154H143.071C142.769 18.0154 142.653 18.1737 142.653 18.4615V28.0589C142.653 28.3322 142.48 28.4187 142.251 28.4187H139.949C139.675 28.4187 139.589 28.3179 139.589 28.0732V16.0873C139.589 15.7996 139.675 15.6556 139.949 15.6556H142.251C142.48 15.6556 142.653 15.7851 142.653 16.0873V16.4471C142.653 16.7059 142.769 16.8067 143.071 16.8067C143.143 16.8067 143.229 16.8067 143.33 16.7636L144.639 15.9002C145.115 15.6556 145.618 15.5117 146.207 15.5117H147.546C147.79 15.5117 147.949 15.6412 147.949 15.9002V17.6701Z" fill="white"/>
<path d="M148.408 26.0011V20.2743C148.408 19.0512 148.927 18.1016 150.02 17.5117L152.438 16.1016C152.941 15.7849 153.445 15.641 154.035 15.641H156.121C156.423 15.641 156.553 15.5259 156.553 15.2525V10.5474C156.553 10.3028 156.668 10.1157 156.884 10.1157H159.201C159.474 10.1157 159.588 10.3028 159.588 10.5474V28.0587C159.588 28.3177 159.474 28.404 159.201 28.404H156.884C156.653 28.404 156.553 28.3177 156.553 28.0444V27.6846C156.553 27.3969 156.423 27.2673 156.121 27.3681L151.733 28.548C151.488 28.6342 151.272 28.6342 151.057 28.6342C149.877 28.6774 148.423 27.5839 148.423 26.0154M156.567 25.6989V18.49C156.567 18.1735 156.438 18.0153 156.107 18.0153H151.905C151.589 18.0153 151.474 18.1735 151.474 18.49V25.6989C151.474 25.9723 151.589 26.0874 151.905 26.0874H156.107C156.423 26.0874 156.567 25.9723 156.567 25.6989Z" fill="white"/>
</g>
</g>
<defs>
<clipPath id="clip0_3185_5226">
<rect width="175.66" height="34.519" fill="white"/>
</clipPath>
<clipPath id="clip1_3185_5226">
<rect width="176.578" height="34.519" fill="white" transform="translate(-0.458984)"/>
</clipPath>
</defs>
</svg>
